<?xml version="1.0" encoding="utf-8"?>
<svg version="1.1" xmlns="http://www.w3.org/2000/svg" xmlns:xlink="http://www.w3.org/1999/xlink" x="0px" y="0px"
	 viewBox="0 0 750 450" style="enable-background:new 0 0 750 500;" xml:space="preserve">
<g id="BACKGROUND">
</g>
<g id="OBJECTS">
	<g>
		<path style="fill:#D7EAFA;" d="M190.123,373.997h-72.494c-0.989,0-1.791-0.802-1.791-1.791l0,0c0-0.989,0.802-1.791,1.791-1.791
			h72.494c0.989,0,1.791,0.802,1.791,1.791l0,0C191.914,373.195,191.112,373.997,190.123,373.997z"/>
		<path style="fill:#D7EAFA;" d="M639.983,387.201h-72.494c-0.989,0-1.791-0.802-1.791-1.791l0,0c0-0.989,0.802-1.791,1.791-1.791
			h72.494c0.989,0,1.791,0.802,1.791,1.791l0,0C641.774,386.399,640.972,387.201,639.983,387.201z"/>
		<path style="fill:#D7EAFA;" d="M231.243,97.843c-1.549,0-2.859-1.38-2.862-3.116c0-0.011,0-0.021,0-0.032
			c0-9.66,5.944-17.49,13.276-17.49c2.293,0,4.45,0.766,6.331,2.114c2.712-8.871,9.295-15.141,16.999-15.141
			c2.403,0,4.692,0.626,6.795,1.734c3.897-4.864,9.156-7.854,14.948-7.854c7.892,0,14.801,5.54,18.611,13.828
			c3.346-4.731,8.104-7.708,13.4-7.708c10.124,0,18.332,10.813,18.332,24.151c0,2.501-0.291,4.912-0.827,7.18
			c-0.329,1.388-1.478,2.334-2.759,2.334H231.243z"/>
		<path style="fill:#D7EAFA;" d="M499.255,116.705c1.549,0,2.859-1.216,2.862-2.747c0-0.009,0-0.019,0-0.028
			c0-8.515-5.944-15.417-13.276-15.417c-2.293,0-4.449,0.675-6.332,1.863c-2.712-7.82-9.295-13.346-17-13.346
			c-2.403,0-4.692,0.552-6.795,1.528c-3.897-4.288-9.156-6.923-14.948-6.923c-7.892,0-14.801,4.883-18.611,12.189
			c-3.347-4.171-8.104-6.794-13.4-6.794c-10.124,0-18.332,9.531-18.332,21.289c0,2.205,0.291,4.33,0.827,6.329
			c0.328,1.224,1.478,2.057,2.759,2.057H499.255z"/>
		<path style="fill:#D7EAFA;" d="M262.427,110.357h-72.494c-0.989,0-1.791-0.802-1.791-1.791l0,0c0-0.989,0.802-1.791,1.791-1.791
			h72.494c0.989,0,1.791,0.802,1.791,1.791l0,0C264.218,109.555,263.416,110.357,262.427,110.357z"/>
		<path style="fill:#D7EAFA;" d="M537.621,127.232h-55.64c-0.989,0-1.791-0.802-1.791-1.791l0,0c0-0.989,0.802-1.791,1.791-1.791
			h55.64c0.989,0,1.791,0.802,1.791,1.791l0,0C539.412,126.43,538.61,127.232,537.621,127.232z"/>
	</g>
	<ellipse style="fill:#D7EAFA;" cx="374.043" cy="407.628" rx="245.097" ry="19.121"/>
	<g>
		<path style="fill:#F2F1EF;stroke:#DEDDDC;stroke-miterlimit:10;" d="M603.254,146.963v255.429h-444.74V146.963
			c0-6.502,5.271-11.773,11.773-11.773h421.194C597.983,135.19,603.254,140.461,603.254,146.963z"/>
		<path style="fill:#E6E5E3;" d="M603.254,146.963v7.75h-444.74v-7.75c0-6.502,5.271-11.773,11.773-11.773h421.194
			C597.983,135.19,603.254,140.461,603.254,146.963z"/>
		<path style="fill:#F8554A;" d="M175.252,145.138c0,1.736-1.407,3.144-3.144,3.144c-1.736,0-3.144-1.408-3.144-3.144
			c0-1.736,1.408-3.144,3.144-3.144C173.845,141.994,175.252,143.401,175.252,145.138z"/>
		<path style="fill:#FEC107;" d="M191.285,145.138c0,1.736-1.408,3.144-3.144,3.144c-1.736,0-3.144-1.408-3.144-3.144
			c0-1.736,1.408-3.144,3.144-3.144C189.878,141.994,191.285,143.401,191.285,145.138z"/>
		<path style="fill:#00857C;" d="M208.261,145.138c0,1.736-1.407,3.144-3.144,3.144c-1.736,0-3.144-1.408-3.144-3.144
			c0-1.736,1.408-3.144,3.144-3.144C206.854,141.994,208.261,143.401,208.261,145.138z"/>
		<g>
			<rect x="184.719" y="289.733" style="fill:#E6E5E3;" width="149.953" height="69.79"/>
			<rect x="184.719" y="200.607" style="fill:#E6E5E3;" width="67.159" height="69.79"/>
			<rect x="266.155" y="200.607" style="fill:#E6E5E3;" width="67.159" height="69.79"/>
			<rect x="426.932" y="200.607" style="fill:#E6E5E3;" width="67.159" height="69.79"/>
			<rect x="508.368" y="200.607" style="fill:#E6E5E3;" width="67.159" height="69.79"/>
			<rect x="427.096" y="289.733" style="fill:#E6E5E3;" width="149.954" height="69.79"/>
		</g>
	</g>
	<g>
		<g>
			<path style="fill:#282828;" d="M228.506,412.521h-27.52c-1.241,0-2.247-1.006-2.247-2.247v-0.433c0-2.018,1.19-3.845,3.036-4.661
				l17.703-7.825l12.323,0.301l1.347,9.518C233.548,409.998,231.357,412.521,228.506,412.521z"/>
			<path style="fill:#282828;" d="M266.098,412.521h27.52c1.241,0,2.247-1.006,2.247-2.247v-0.433c0-2.018-1.19-3.845-3.036-4.661
				l-17.703-7.825l-12.323,0.301l-1.347,9.518C261.055,409.998,263.246,412.521,266.098,412.521z"/>
			<path style="fill:#FFB1A5;" d="M226.996,399.91h-2.561c-2.737,0-4.956-2.219-4.956-4.956v-9.621h12.473v9.621
				C231.952,397.691,229.733,399.91,226.996,399.91z"/>
			<path style="fill:#FFB1A5;" d="M267.607,399.91h2.561c2.737,0,4.956-2.219,4.956-4.956v-9.621h-12.473v9.621
				C262.651,397.691,264.87,399.91,267.607,399.91z"/>
			<path style="fill:#005685;" d="M232.085,274.473l-16.214,112.513c0,0,5.711,2.405,9.317,2.405c3.607,0,10.52-1.202,10.52-1.202
				l10.603-75.442l12.54,76.343c0,0,7.214,2.405,11.121,2.405c3.907,0,8.115-1.803,8.115-1.803l-16.146-114.212L232.085,274.473z"/>
			<path style="fill:none;stroke:#0068A1;stroke-width:0.7;stroke-linecap:round;stroke-miterlimit:10;" d="M238.049,294.058
				c0,0-0.61,16.777-6.711,18.607"/>
			<path style="fill:none;stroke:#0068A1;stroke-width:0.7;stroke-linecap:round;stroke-miterlimit:10;" d="M254.52,294.668
				c0,0,3.965,17.997,10.066,17.997"/>
			<path style="fill:none;stroke:#FFFFFF;stroke-width:0.7;stroke-linecap:round;stroke-miterlimit:10;" d="M247.352,296.27
				c0,0.716-0.58,1.296-1.296,1.296c-0.716,0-1.296-0.581-1.296-1.296c0-0.716,0.58-1.296,1.296-1.296
				C246.772,294.973,247.352,295.554,247.352,296.27z"/>
			<path style="fill:none;stroke:#616161;stroke-width:0.7;stroke-linecap:round;stroke-miterlimit:10;" d="M199.92,409.359
				c0,0,28.978,1.423,31.215-1.22"/>
			<path style="fill:none;stroke:#616161;stroke-width:0.7;stroke-linecap:round;stroke-miterlimit:10;" d="M293.869,409.359
				c0,0-28.978,1.423-31.215-1.22"/>
		</g>
		<g>
			<path style="fill:#FFB2AB;" d="M329.426,176.666c-1.022-0.566-4.911,4.116-4.911,4.116s4.313-8.747,2.894-9.199
				c-1.419-0.452-4.925,8.291-4.925,8.291s3.574-9.825,1.995-9.953c-1.579-0.128-4.323,9.332-4.323,9.332s1.438-7.315-0.077-7.133
				c-1.515,0.182-2.022,7.306-2.022,7.306s0.146-2.747-1.186-3.249c-1.332-0.502-3.291,7.114-3.291,7.114
				s-19.951,25.825-30.197,33.479c-1.981,1.475-3.997,2.688-6.004,3.683c0.454,1.606,2.54,9.05,3.814,14.383
				c6.048-3.849,12.436-8.317,16.817-12.454c10.813-10.219,22.497-34.066,22.497-34.066S330.448,177.232,329.426,176.666z"/>
			<path style="fill:#FFB2AB;" d="M212.85,250.073c-1.955,1.536-4.224,2.548-7.008,2.767c-10.467,0.783-21.155-4.378-21.464-4.528
				c0,0-5.292-6.097-6.194-4.995c-0.902,1.102,0.601,3.406,0.601,3.406s-4.008-5.911-5.41-5.31
				c-1.403,0.601,3.507,6.212,3.507,6.212s-7.113-6.813-8.416-5.911c-1.303,0.902,6.713,7.614,6.713,7.614s-7.414-5.811-8.416-4.709
				c-1.002,1.102,7.113,6.512,7.113,6.512s-5.711-2.104-6.312-1.102c-0.601,1.002,12.782,7.273,12.782,7.273
				c1.406,0.703,18.999,9.323,31.509,6.551c2.182-0.48,4.154-1.178,5.926-1.999L212.85,250.073z"/>
			<path style="fill:#C98CD2;" d="M282.179,239.862c-0.061-0.89-0.445-2.766-0.986-5.027c-1.274-5.332-3.36-12.777-3.814-14.383
				c-0.052-0.201-0.087-0.314-0.087-0.314s-13.143,4.529-17.402,4.704c-0.401,0.009-0.777,0.026-1.134,0.026
				c-2.592,0.044-4.172-0.166-4.172-0.166l-12.593-0.209c0,0-1.78-0.061-4.355,0.576c-3.124,0.768-7.427,2.557-11.153,6.729
				c-4.966,5.542-8.012,13.737-13.396,18.092c-0.009,0-0.018,0.009-0.026,0.009c-0.148,0.087-0.227,0.131-0.227,0.131l0.018,0.044
				l4.931,11.782l1.353,3.229c0,0,6.368,0.057,10.679-11.899l-7.625,38.517l47.38,1.222l-5.359-47.651
				C269.438,244.54,282.336,242.454,282.179,239.862z"/>
		</g>
		<g>
			<path style="fill:#FFB2AB;" d="M255.029,208.601v15.711c0,0-0.163,0.155-0.447,0.387c-0.989,0.826-3.483,2.683-5.96,2.829
				c-0.103,0.008-0.198,0.008-0.301,0.008c-0.155,0-0.318-0.008-0.473-0.026c-2.649-0.232-5.168-2.382-5.856-3.018
				c-0.12-0.112-0.189-0.181-0.189-0.181v-15.711H255.029z"/>
			<path style="fill:#252A26;" d="M255.029,216.719v4.996c-9.864-1.806-13.028-12.418-13.218-13.08
				C243.248,212.428,250.669,215.326,255.029,216.719z"/>
			<path style="fill:#FFB2AB;" d="M265.245,192.374v13.819c0,3.371-1.402,6.424-3.663,8.582c-2.133,2.047-5.022,3.294-8.204,3.294
				c-0.868,0-1.711-0.095-2.52-0.267c-5.349-1.161-9.356-5.917-9.356-11.609v-2.313c-3.352-0.11-4.651-3.646-2.742-5.804
				c0.688-0.774,2.071-0.955,2.742-0.732v-4.97c0-6.562,5.314-11.876,11.876-11.876c3.276,0,6.243,1.333,8.393,3.474
				C263.912,186.122,265.245,189.089,265.245,192.374z"/>
			<path style="fill:#252A26;" d="M243.692,197.135c0,0,2.898-2.593,3.126-5.186c0.229-2.593,0-6.329,0-6.329s-4.499,0-4.804-0.915
				c-0.305-0.915-2.822,4.728-2.059,8.236c0.763,3.508,0.686,4.575,0.686,4.575S242.472,198.508,243.692,197.135z"/>
			<path style="fill:#252A26;" d="M247.352,188.061c3.126-2.288,5.414,1.754,7.854,2.593c2.44,0.839,2.364-1.525,5.262-0.915
				c2.898,0.61,5.033,4.271,8.998,2.44c3.965-1.83,4.347-7.855,4.347-7.855s-4.804,0-5.567-1.983
				c-0.763-1.983-1.983-7.321-4.347-7.321c-2.364,0-4.347,2.364-5.872,1.601c-1.525-0.763-2.288-3.965-4.728-3.813
				c-2.44,0.153-3.66,3.584-6.711,3.737c-3.05,0.152-5.643,0.839-5.872,3.05c-0.229,2.211-0.305,4.957,1.678,5.872
				C244.378,186.383,244.225,190.348,247.352,188.061z"/>
			<g>
				<path style="fill:#282828;" d="M253.676,203.148c-1.409,0-1.911-1.356-1.911-2.625c0-0.142,0.115-0.258,0.258-0.258
					c0.142,0,0.258,0.115,0.258,0.258c0,0.352,0.068,2.109,1.395,2.109c1.328,0,1.395-1.757,1.395-2.109
					c0-0.142,0.115-0.258,0.258-0.258s0.258,0.115,0.258,0.258C255.587,201.792,255.085,203.148,253.676,203.148z"/>
				<path style="fill:#282828;" d="M261.341,203.148c-1.409,0-1.911-1.356-1.911-2.625c0-0.142,0.115-0.258,0.258-0.258
					s0.258,0.115,0.258,0.258c0,0.352,0.068,2.109,1.395,2.109c1.328,0,1.395-1.757,1.395-2.109c0-0.142,0.115-0.258,0.258-0.258
					c0.142,0,0.258,0.115,0.258,0.258C263.251,201.792,262.75,203.148,261.341,203.148z"/>
				<path style="fill:#282828;" d="M251.271,198.624c-0.112,0-0.224-0.044-0.308-0.13c-0.165-0.171-0.162-0.442,0.008-0.608
					c0.063-0.061,1.546-1.492,2.877-1.659c0.235-0.027,0.45,0.138,0.48,0.373c0.029,0.236-0.138,0.451-0.373,0.48
					c-0.866,0.108-2.014,1.063-2.384,1.422C251.488,198.583,251.379,198.624,251.271,198.624z"/>
				<path style="fill:#282828;" d="M263.295,198.361c-0.147,0-0.291-0.076-0.371-0.213c-0.563-0.96-1.858-1.547-1.871-1.553
					c-0.217-0.097-0.314-0.351-0.217-0.568c0.097-0.216,0.35-0.314,0.568-0.217c0.063,0.029,1.562,0.709,2.262,1.903
					c0.12,0.205,0.052,0.468-0.153,0.588C263.443,198.342,263.369,198.361,263.295,198.361z"/>
				<path style="fill:#282828;" d="M257.657,206.498c-0.215,0-0.471-0.048-0.775-0.176c-0.131-0.055-0.193-0.207-0.138-0.338
					c0.055-0.132,0.208-0.193,0.338-0.138c0.318,0.134,0.752,0.236,1.017-0.03c0.226-0.229,0.26-0.654,0.15-0.906
					c-0.273-0.623-0.553-4.255-0.585-4.668c-0.01-0.142,0.096-0.266,0.238-0.277c0.142-0.013,0.266,0.095,0.277,0.238
					c0.115,1.523,0.364,4.091,0.542,4.499c0.181,0.415,0.135,1.08-0.255,1.476C258.328,206.319,258.069,206.498,257.657,206.498z"/>
				<path style="fill:#FFFFFF;" d="M254.24,208.376c0,0,3.381,0.488,5.297,0.601c0,0-0.396,2.212-1.766,2.93
					C256.532,212.557,254.311,211.926,254.24,208.376z"/>
				<circle style="fill:#F4968E;" cx="251.021" cy="206.535" r="1.803"/>
				<path style="fill:#F4968E;" d="M264.313,206.417c0,0.996-0.807,1.803-1.803,1.803c-0.996,0-1.803-0.807-1.803-1.803
					s0.807-1.803,1.803-1.803C263.506,204.614,264.313,205.421,264.313,206.417z"/>
				<path style="fill:#F4968E;" d="M261.582,214.775c-2.133,2.047-5.022,3.294-8.204,3.294c-0.868,0-1.711-0.095-2.52-0.267
					c-0.009-0.009-0.026-0.026-0.034-0.034C250.824,217.768,254.522,212.393,261.582,214.775z"/>
			</g>
		</g>
	</g>
	<g>
		<g>
			<path style="fill:#282828;" d="M507.426,409.521h26.827c1.209,0,2.19-0.98,2.19-2.19v-0.422c0-1.967-1.16-3.749-2.959-4.544
				l-17.258-7.628l-12.013,0.293l-1.313,9.279C502.511,407.061,504.647,409.521,507.426,409.521z"/>
			<path style="fill:#282828;" d="M470.781,409.521h-26.827c-1.21,0-2.19-0.98-2.19-2.19v-0.422c0-1.967,1.16-3.749,2.96-4.544
				l17.258-7.628l12.013,0.293l1.313,9.279C475.697,407.061,473.56,409.521,470.781,409.521z"/>
			<path style="fill:#F8C4B5;" d="M509.023,397.228h2.247c2.737,0,4.956-2.219,4.956-4.956v-9.254h-12.159v9.254
				C504.067,395.009,506.286,397.228,509.023,397.228z"/>
			<path style="fill:#F8C4B5;" d="M469.184,397.228h-2.247c-2.737,0-4.956-2.219-4.956-4.956v-9.255h12.159v9.254
				C474.14,395.009,471.921,397.228,469.184,397.228z"/>
			<path style="fill:#282828;" d="M504.127,274.531l18.234,109.237c0,0-8.185,2.344-11.701,2.344
				c-3.516,0-10.255-1.172-10.255-1.172l-12.013-73.543l-10.548,74.422c0,0-7.032,2.344-10.841,2.344
				c-3.809,0-10.529-1.758-10.529-1.758l16.617-112.179L504.127,274.531z"/>
			<path style="fill:#616161;" d="M472.311,402.796c0,1.011-0.819,1.83-1.83,1.83c-1.011,0-1.83-0.819-1.83-1.83
				s0.819-1.83,1.83-1.83C471.491,400.966,472.311,401.785,472.311,402.796z"/>
			<path style="fill:#616161;" d="M510.948,402.796c0,1.011-0.819,1.83-1.83,1.83s-1.83-0.819-1.83-1.83s0.819-1.83,1.83-1.83
				S510.948,401.785,510.948,402.796z"/>
		</g>
		<g>
			<polygon style="fill:#FFB2AB;" points="474.903,266.296 475.708,274.226 501.509,274.531 502.203,266.906 			"/>
			<path style="fill:#FFB2AB;" d="M408.334,182.05c1.022-0.566,4.911,4.116,4.911,4.116s-4.313-8.748-2.894-9.2
				c1.419-0.452,4.925,8.291,4.925,8.291s-3.574-9.825-1.995-9.953c1.579-0.128,4.323,9.332,4.323,9.332s-1.438-7.315,0.077-7.133
				c1.515,0.183,2.023,7.306,2.023,7.306s-0.146-2.747,1.186-3.249c1.332-0.502,3.291,7.114,3.291,7.114
				s19.951,25.825,30.197,33.479c1.981,1.475,20.91,3.188,22.917,4.183c-0.454,1.606-6.453,16.325-7.727,21.657
				c-6.048-3.849-25.436-16.092-29.817-20.229c-10.813-10.22-22.497-34.066-22.497-34.066S407.311,182.616,408.334,182.05z"/>
			<path style="fill:#FFB2AB;" d="M503.424,229.692c3.355,3.203,17.871,26.374,25.927,27.148c10.448,1.003,23.721-2.995,24.03-3.145
				c0,0,5.292-6.097,6.194-4.995c0.902,1.102-0.601,3.407-0.601,3.407s4.007-5.911,5.41-5.31c1.403,0.601-3.507,6.212-3.507,6.212
				s7.113-6.813,8.416-5.911c1.302,0.902-6.713,7.614-6.713,7.614s7.414-5.811,8.416-4.709c1.002,1.102-7.113,6.512-7.113,6.512
				s5.711-2.104,6.312-1.102c0.601,1.002-12.782,7.273-12.782,7.273c-1.406,0.703-18.671,6.446-31.417,5.135
				c-7.839-0.806-33.052-22.171-34.824-22.992l7.219-18.34C498.391,226.489,500.068,226.489,503.424,229.692z"/>
			<path style="fill:#00857C;" d="M504.644,267.516l-32.638-1.22c0,0-2.189-6.182-3.392-13.398c-0.344-2.055,0.086-5.16,0.868-8.539
				c1.918-8.213,5.951-18.076,6.183-18.635c0.206,0,0.404,0.009,0.602,0.009c2.52,0.043,3.616-0.787,3.616-0.787
				c0.972,0.8,3.84,3.238,6.256,3.375c0.103,0.009,0.189,0.009,0.292,0.009c0.155,0,0.31-0.009,0.464-0.017
				c2.58-0.232,5.039-2.33,5.71-2.95c0,0,1.729-0.052,4.248,0.567c0.671,0.163,1.393,0.37,2.158,0.654
				c1.608,6.037,7.58,20.201,7.614,20.648C507.211,254.214,504.644,267.516,504.644,267.516z"/>
		</g>
		<g>
			<path style="fill:#FFB2AB;" d="M492.786,209.875v15.316c0,0-0.069,0.069-0.181,0.172c-0.671,0.619-3.13,2.717-5.71,2.95
				c-0.155,0.009-0.31,0.017-0.464,0.017c-0.103,0-0.189,0-0.292-0.009c-2.417-0.138-4.842-1.952-5.813-2.752
				c-0.275-0.232-0.43-0.378-0.43-0.378v-15.316H492.786z"/>
			<path style="fill:#FFB2AB;" d="M493.079,205.274v2.253c0,1.066-0.146,2.098-0.413,3.07c-0.869,3.165-3.036,5.779-5.891,7.232
				c-1.582,0.817-3.371,1.273-5.272,1.273c-0.55,0-1.083-0.034-1.608-0.112c-2.391-0.335-4.532-1.393-6.217-2.95
				c-2.305-2.107-3.741-5.143-3.741-8.513v-13.475c0-3.199,1.298-6.089,3.388-8.187c1.221-1.221,2.7-2.167,4.369-2.735
				c0.12-0.052,0.241-0.094,0.37-0.129c1.092-0.344,2.236-0.525,3.44-0.525c6.398,0,11.575,5.185,11.575,11.575v4.85
				c0.112-0.017,0.215-0.043,0.327-0.077c0.55-0.077,1.118,0.12,1.677,0.748C496.94,201.68,496.56,205.036,493.079,205.274z"/>
			<path style="fill:#252A26;" d="M495.9,185.26c0,0-1.729-9.659,2.237-9.761c3.965-0.102,3.762,3.864,3.762,3.864
				s2.745-7.016,6.406-4.27c3.66,2.745-2.542,8.643-2.542,8.643s5.084-2.542,7.117,0c2.034,2.542-3.254,4.27-3.254,4.27
				s3.965,1.118,2.847,3.254c-1.118,2.135-6.609-0.407-6.609-0.407s2.847,5.694-0.915,5.796c-3.762,0.102-7.016-5.185-7.016-5.185
				L495.9,185.26z"/>
			<path style="fill:#252A26;" d="M495.237,193.589c-0.105,2.845-1.143,5.105-2.156,5.315c-2.618,0.524-2.365-1.65-2.365-1.65
				s-1.728,1.423-4.067,0.611c-2.339-0.812-1.422-4.678-1.422-4.678s-1.423,1.833-5.088,1.422c-3.247-0.358-3.212-2.81-3.168-3.351
				c-0.079,0.34-0.48,1.466-2.522,2.234c-2.444,0.916-4.582-0.402-4.582-0.402s-3.046-14.339,14.644-11.494
				c4.128,0.663,6.798,2.383,8.431,4.495C494.757,188.414,495.324,191.207,495.237,193.589z"/>
			<path style="fill:#F8554A;" d="M495.237,193.589c0.087-2.383-0.48-5.175-2.295-7.497c0.009-0.009,0.009-0.017,0.009-0.017
				s1.623-2.243,3.36-0.611C498.021,187.07,500.831,193.38,495.237,193.589z"/>
			<g>
				<path style="fill:#252A26;" d="M481.213,204.565c-1.378,0-1.869-1.325-1.869-2.565c0-0.142,0.115-0.258,0.258-0.258
					c0.143,0,0.258,0.116,0.258,0.258c0,0.342,0.065,2.05,1.354,2.05c1.288,0,1.354-1.707,1.354-2.05
					c0-0.142,0.115-0.258,0.258-0.258c0.143,0,0.258,0.116,0.258,0.258C483.082,203.239,482.591,204.565,481.213,204.565z"/>
				<path style="fill:#252A26;" d="M473.741,204.565c-1.38,0-1.869-1.382-1.869-2.565c0-0.142,0.115-0.258,0.258-0.258
					c0.143,0,0.258,0.116,0.258,0.258c0,0.342,0.066,2.05,1.354,2.05c1.288,0,1.354-1.707,1.354-2.05
					c0-0.142,0.115-0.258,0.258-0.258c0.143,0,0.258,0.116,0.258,0.258C475.611,203.239,475.119,204.565,473.741,204.565z"/>
				<path style="fill:#252A26;" d="M483.557,200.159c-0.108,0-0.216-0.041-0.3-0.122c-0.359-0.349-1.476-1.278-2.317-1.383
					c-0.235-0.029-0.402-0.244-0.373-0.48c0.029-0.236,0.246-0.4,0.48-0.373c1.299,0.162,2.749,1.561,2.809,1.62
					c0.171,0.166,0.174,0.438,0.009,0.608C483.781,200.115,483.668,200.159,483.557,200.159z"/>
				<path style="fill:#252A26;" d="M471.837,199.902c-0.074,0-0.15-0.019-0.218-0.059c-0.205-0.12-0.274-0.383-0.154-0.588
					c0.684-1.167,2.147-1.832,2.209-1.86c0.216-0.097,0.469,0,0.568,0.217c0.097,0.216,0,0.471-0.216,0.568
					c-0.013,0.006-1.276,0.583-1.819,1.51C472.128,199.826,471.984,199.902,471.837,199.902z"/>
				<path style="fill:#252A26;" d="M477.332,207.83c-0.405,0-0.657-0.175-0.794-0.314c-0.382-0.387-0.427-1.039-0.249-1.445
					c0.173-0.398,0.416-2.9,0.528-4.384c0.01-0.142,0.112-0.246,0.276-0.238c0.142,0.011,0.249,0.135,0.238,0.277
					c-0.03,0.402-0.304,3.944-0.57,4.552c-0.107,0.244-0.074,0.655,0.145,0.876c0.254,0.259,0.675,0.157,0.983,0.028
					c0.131-0.055,0.283,0.006,0.338,0.137c0.055,0.131-0.006,0.283-0.138,0.338C477.793,207.783,477.542,207.83,477.332,207.83z"/>
				<path style="fill:#FFFFFF;" d="M480.664,209.654c0,0-3.296,0.476-5.164,0.586c0,0,0.386,2.157,1.721,2.857
					C478.428,213.73,480.594,213.115,480.664,209.654z"/>
				<circle style="fill:#F4968E;" cx="483.41" cy="206.98" r="1.758"/>
				<path style="fill:#F4968E;" d="M470.844,207.745c0,0.971,0.787,1.758,1.758,1.758c0.971,0,1.758-0.787,1.758-1.758
					c0-0.971-0.787-1.758-1.758-1.758C471.631,205.987,470.844,206.774,470.844,207.745z"/>
				<path style="fill:#F4968E;" d="M486.775,217.829c-1.582,0.817-3.371,1.273-5.272,1.273c-3.027,0-5.77-1.161-7.826-3.061
					c1.901-0.585,8.281-2.158,12.667,1.393C486.509,217.563,486.655,217.7,486.775,217.829z"/>
			</g>
			<path style="fill:#252A26;" d="M479.896,222.387v-3.397c0.525,0.077,1.058,0.112,1.608,0.112c1.901,0,3.689-0.456,5.272-1.273
				c2.855-1.453,5.022-4.068,5.891-7.232C492.726,210.571,489.372,222.697,479.896,222.387z"/>
			<path style="fill:#252A26;" d="M494.527,203.816c0,0.309-0.25,0.559-0.559,0.559c-0.309,0-0.559-0.25-0.559-0.559
				c0-0.309,0.25-0.559,0.559-0.559C494.277,203.256,494.527,203.507,494.527,203.816z"/>
		</g>
	</g>
	<g>
		<g>
			<path style="fill:#4D9EE3;" d="M421.475,104.46c-1.049,0-2.081,0.071-3.096,0.195c0.012-0.455,0.035-0.908,0.035-1.365
				c0-28.584-23.172-51.756-51.756-51.756c-24.683,0-45.316,17.284-50.492,40.405c-3.23-1.08-6.683-1.674-10.276-1.674
				c-17.889,0-32.391,14.502-32.391,32.391c0,17.889,14.502,32.391,32.391,32.391h113.798v-0.07c0.591,0.041,1.186,0.07,1.788,0.07
				c13.969,0,25.293-11.324,25.293-25.293C446.768,115.784,435.444,104.46,421.475,104.46z"/>
			<g>

					<line style="fill:none;stroke:#FFFFFF;stroke-width:4;stroke-linecap:round;stroke-miterlimit:10;" x1="370.603" y1="131.541" x2="370.603" y2="78.638"/>

					<polyline style="fill:none;stroke:#FFFFFF;stroke-width:4;stroke-linecap:round;stroke-linejoin:round;stroke-miterlimit:10;" points="
					350.152,101.865 370.603,78.177 390.531,101.865 				"/>
			</g>
		</g>
		<g>

				<line style="fill:none;stroke:#4D9EE3;stroke-width:4;stroke-linecap:round;stroke-miterlimit:10;" x1="380.884" y1="359.851" x2="380.884" y2="300.644"/>

				<polyline style="fill:none;stroke:#4D9EE3;stroke-width:4;stroke-linecap:round;stroke-linejoin:round;stroke-miterlimit:10;" points="
				361.64,326.639 381.133,300.128 400.129,326.639 			"/>
		</g>
	</g>
	<g>
		<g>
			<g>

					<rect x="311.567" y="148.447" transform="matrix(0.2586 -0.966 0.966 0.2586 75.4792 503.0728)" style="fill:#FFFFFF;" width="107.832" height="107.832"/>
				<path style="fill:#4D9EE3;" d="M328.054,137.562l102.231,27.372l-27.372,102.232l-102.231-27.372L328.054,137.562
					 M326.639,135.112l-0.517,1.932L298.75,239.276l-0.517,1.932l1.932,0.517l102.231,27.372l1.932,0.517l0.517-1.932
					l27.372-102.231l0.517-1.932l-1.932-0.517L328.571,135.63L326.639,135.112L326.639,135.112z"/>
			</g>
			<path style="fill:#CBE4FA;" d="M405.241,180.376c-1.32,4.929-6.385,7.855-11.314,6.535c-4.929-1.32-7.855-6.385-6.535-11.314
				c1.32-4.929,6.385-7.855,11.314-6.535C403.635,170.382,406.56,175.447,405.241,180.376z"/>
			<path style="fill:#CBE4FA;" d="M312.198,232.194c0,0,29.855-43.043,36.985-41.134c7.13,1.909,13.552,27.184,13.552,27.184
				s12.708-10.338,19.978-8.391c7.27,1.946,14.023,44.976,14.023,44.976L312.198,232.194z"/>
			<g>
				<path style="fill:#CBE4FA;" d="M377.881,184.029l-47.418-12.148c-0.082-0.021-0.148-0.082-0.175-0.163
					c-0.027-0.08-0.012-0.169,0.041-0.235c0.134-0.169,3.317-4.127,6.344-4.127c0.447,0,0.874,0.088,1.268,0.261
					c1.566,0.689,2.727,1.583,3.749,2.372c1.06,0.817,1.897,1.462,2.789,1.569c0.002,0,0.003,0,0.005,0
					c0.545,0,1.255-0.633,2.077-1.365c1.594-1.421,3.778-3.366,6.929-3.366c0.923,0,1.884,0.172,2.857,0.511
					c4.506,1.571,5.46,4.902,6.091,7.106c0.31,1.082,0.534,1.863,1.022,1.922c0.1,0.012,0.207,0.017,0.321,0.017
					c0.536,0,1.224-0.114,2.021-0.247c1.03-0.171,2.196-0.365,3.378-0.365c1.456,0,2.641,0.299,3.62,0.913
					c3.078,1.93,5.279,6.794,5.372,7.001c0.039,0.087,0.024,0.19-0.037,0.263c-0.049,0.057-0.119,0.089-0.191,0.089
					C377.923,184.037,377.902,184.035,377.881,184.029z"/>
				<path style="fill:#FFFFFF;" d="M353.49,167.077c0.852,0,1.773,0.148,2.774,0.497c6.764,2.359,5.309,8.817,7.166,9.04
					c0.109,0.013,0.226,0.019,0.351,0.019c1.267,0,3.329-0.611,5.399-0.611c1.212,0,2.427,0.21,3.487,0.874
					c3.049,1.912,5.276,6.891,5.276,6.891l-47.419-12.148c0,0,3.207-4.033,6.148-4.033c0.397,0,0.789,0.073,1.167,0.24
					c3.186,1.401,4.751,3.737,6.609,3.961c0.03,0.004,0.06,0.005,0.091,0.005C346.129,171.812,348.678,167.077,353.49,167.077
					 M353.49,166.577c-3.246,0-5.471,1.982-7.096,3.429c-0.753,0.671-1.465,1.305-1.854,1.305c-0.855-0.101-1.668-0.727-2.697-1.521
					c-1.035-0.798-2.207-1.702-3.802-2.403c-0.426-0.187-0.886-0.282-1.368-0.282c-3.147,0-6.403,4.049-6.54,4.222
					c-0.105,0.133-0.137,0.31-0.083,0.47c0.054,0.161,0.186,0.283,0.35,0.325l47.419,12.148c0.041,0.01,0.083,0.016,0.124,0.016
					c0.145,0,0.286-0.063,0.382-0.178c0.124-0.147,0.152-0.351,0.074-0.527c-0.094-0.209-2.326-5.14-5.467-7.11
					c-1.02-0.64-2.248-0.951-3.752-0.951c-1.203,0-2.38,0.196-3.419,0.368c-0.786,0.131-1.465,0.243-1.98,0.243
					c-0.104,0-0.201-0.005-0.292-0.016c-0.324-0.039-0.561-0.866-0.812-1.742c-0.645-2.254-1.621-5.66-6.25-7.274
					C355.43,166.754,354.441,166.577,353.49,166.577L353.49,166.577z"/>
			</g>
			<g>
				<path style="fill:#CBE4FA;" d="M406.186,208.814c-0.022,0-0.045-0.003-0.067-0.009l-36.782-10.276
					c-0.092-0.026-0.162-0.102-0.179-0.197c-0.017-0.094,0.022-0.19,0.1-0.247c0.143-0.104,3.54-2.542,6.39-2.647l0.153-0.003
					c1.938,0,3.539,1.316,4.825,2.373c0.582,0.478,1.085,0.891,1.48,1.06c0.041,0.018,0.083,0.026,0.126,0.026
					c0.307,0,0.746-0.424,1.254-0.915c1.067-1.032,2.68-2.592,5.411-2.592c0.488,0,1.001,0.051,1.524,0.15
					c3.871,0.735,4.877,3.771,5.542,5.781c0.277,0.837,0.517,1.56,0.845,1.7c0.264,0.113,0.569,0.165,0.963,0.165
					c0.444,0,0.936-0.066,1.505-0.142c0.698-0.094,1.49-0.2,2.369-0.2c0.354,0,0.721,0.017,1.103,0.059
					c2.857,0.313,3.652,5.41,3.685,5.627c0.013,0.084-0.018,0.168-0.082,0.225C406.306,208.792,406.247,208.814,406.186,208.814z"/>
				<path style="fill:#FFFFFF;" d="M388.899,195.637c0.458,0,0.949,0.045,1.477,0.145c5.491,1.043,4.993,6.893,6.335,7.466
					c0.318,0.136,0.671,0.185,1.061,0.185c1.028,0,2.311-0.343,3.874-0.343c0.345,0,0.703,0.017,1.075,0.057
					c2.699,0.295,3.465,5.415,3.465,5.415l-36.782-10.275c0,0,3.446-2.496,6.252-2.6c0.049-0.002,0.097-0.003,0.145-0.003
					c2.737,0,4.888,2.85,6.207,3.413c0.074,0.032,0.149,0.046,0.225,0.046C383.401,199.145,384.856,195.637,388.899,195.637
					 M388.899,195.137c-2.832,0-4.489,1.602-5.585,2.663c-0.41,0.396-0.874,0.845-1.079,0.845c-0.391-0.161-0.905-0.583-1.448-1.03
					c-1.248-1.025-2.958-2.43-4.984-2.43c-0.054,0-0.109,0.001-0.163,0.003c-2.924,0.108-6.381,2.589-6.527,2.695
					c-0.155,0.113-0.233,0.304-0.199,0.493c0.034,0.189,0.173,0.342,0.358,0.393l36.782,10.275c0.044,0.012,0.09,0.018,0.135,0.018
					c0.12,0,0.238-0.043,0.331-0.125c0.127-0.112,0.189-0.281,0.164-0.449c-0.034-0.225-0.858-5.505-3.905-5.838
					c-0.371-0.04-0.741-0.06-1.129-0.06c-0.896,0-1.697,0.108-2.403,0.202c-0.56,0.075-1.044,0.14-1.471,0.14
					c-0.358,0-0.633-0.046-0.865-0.145c-0.224-0.096-0.491-0.902-0.705-1.549c-0.684-2.065-1.717-5.185-5.733-5.948
					C389.931,195.189,389.403,195.137,388.899,195.137L388.899,195.137z"/>
			</g>
		</g>
		<g>
			<g>

					<rect x="82.477" y="199.04" transform="matrix(0.3086 -0.9512 0.9512 0.3086 -145.4495 299.1942)" style="fill:#FFFFFF;" width="101.217" height="101.217"/>
				<path style="fill:#B878C2;" d="M101.207,187.152l94.374,30.619l-30.619,94.374l-94.374-30.619L101.207,187.152 M99.922,184.633
					l-0.617,1.902l-30.619,94.374l-0.617,1.902l1.902,0.617l94.374,30.619l1.902,0.617l0.617-1.902l30.619-94.374l0.617-1.902
					l-1.902-0.617l-94.374-30.619L99.922,184.633L99.922,184.633z"/>
			</g>
			<path style="fill:#EFD8F2;" d="M171.381,231.006c-1.476,4.55-6.361,7.042-10.912,5.566c-4.55-1.476-7.042-6.361-5.566-10.912
				c1.476-4.55,6.362-7.042,10.912-5.566C170.365,221.571,172.857,226.456,171.381,231.006z"/>
			<path style="fill:#EFD8F2;" d="M81.741,274.975c0,0,30.053-38.84,36.635-36.704c6.582,2.135,11.36,26.112,11.36,26.112
				s12.403-9.058,19.114-6.881c6.711,2.177,10.932,42.793,10.932,42.793L81.741,274.975z"/>
			<g>
				<path style="fill:#EFD8F2;" d="M145.658,233.116c-0.025,0-0.05-0.004-0.075-0.011l-43.801-13.689
					c-0.08-0.025-0.144-0.09-0.166-0.171c-0.023-0.082-0.003-0.169,0.053-0.233c0.129-0.145,3.183-3.564,5.979-3.564
					c0.487,0,0.943,0.105,1.354,0.313c1.435,0.722,2.478,1.617,3.398,2.406c0.95,0.815,1.701,1.458,2.526,1.602
					c0.003,0,0.006,0,0.01,0c0.53,0,1.209-0.544,1.993-1.173c1.488-1.192,3.526-2.826,6.294-2.826c0.984,0,2,0.212,3.022,0.629
					c4.15,1.694,4.881,4.864,5.365,6.962c0.236,1.021,0.406,1.76,0.851,1.837c0.152,0.026,0.325,0.037,0.514,0.037
					c0.468,0,1.06-0.066,1.685-0.137c0.793-0.09,1.693-0.191,2.604-0.191c1.641,0,2.927,0.343,3.932,1.049
					c2.792,1.96,4.617,6.626,4.693,6.823c0.034,0.089,0.015,0.191-0.051,0.261C145.792,233.088,145.726,233.116,145.658,233.116z"/>
				<path style="fill:#FFFFFF;" d="M107.648,215.697c0.427,0,0.846,0.086,1.242,0.286c2.914,1.467,4.266,3.731,5.994,4.031
					c0.041,0.007,0.083,0.01,0.125,0.01c1.455,0,3.966-4.006,8.215-4.006c0.896,0,1.87,0.178,2.928,0.61
					c6.217,2.539,4.539,8.514,6.268,8.813c0.165,0.029,0.352,0.041,0.558,0.041c1.075,0,2.662-0.329,4.289-0.329
					c1.321,0,2.668,0.217,3.788,1.003c2.761,1.939,4.603,6.709,4.603,6.709l-43.801-13.689
					C101.856,219.177,104.932,215.698,107.648,215.697 M107.648,215.197L107.648,215.197c-2.908,0-6.035,3.5-6.167,3.649
					c-0.112,0.127-0.153,0.302-0.107,0.465c0.046,0.163,0.171,0.292,0.332,0.343l43.801,13.689c0.049,0.015,0.099,0.023,0.149,0.023
					c0.136,0,0.269-0.056,0.365-0.158c0.131-0.14,0.171-0.343,0.102-0.522c-0.077-0.201-1.93-4.935-4.783-6.938
					c-1.048-0.736-2.381-1.094-4.075-1.094c-0.925,0-1.832,0.102-2.632,0.193c-0.619,0.07-1.203,0.136-1.657,0.136
					c-0.186,0-0.345-0.011-0.472-0.033c-0.281-0.049-0.468-0.861-0.65-1.647c-0.465-2.017-1.245-5.393-5.514-7.137
					c-1.052-0.429-2.1-0.647-3.117-0.647c-2.856,0-4.934,1.665-6.451,2.881c-0.69,0.553-1.403,1.124-1.764,1.124
					c-0.798-0.135-1.525-0.758-2.446-1.548c-0.931-0.798-1.986-1.704-3.448-2.44C108.669,215.311,108.175,215.197,107.648,215.197
					L107.648,215.197z"/>
			</g>
			<g>
				<path style="fill:#EFD8F2;" d="M170.889,257.691c-0.027,0-0.054-0.004-0.08-0.013l-33.934-11.417
					c-0.091-0.03-0.156-0.11-0.169-0.206c-0.012-0.095,0.032-0.189,0.112-0.241c0.137-0.088,3.38-2.169,6.044-2.169
					c1.962,0.029,3.505,1.438,4.632,2.466c0.52,0.476,0.97,0.886,1.331,1.063c0.042,0.021,0.082,0.03,0.127,0.03
					c0.281,0,0.703-0.367,1.191-0.792c0.995-0.866,2.498-2.175,4.858-2.175c0.565,0,1.16,0.075,1.769,0.224
					c3.597,0.879,4.392,3.777,4.918,5.694c0.218,0.794,0.406,1.48,0.699,1.623c0.291,0.143,0.643,0.206,1.14,0.206
					c0.355,0,0.742-0.032,1.161-0.066c0.496-0.04,1.059-0.086,1.659-0.086c0.566,0,1.09,0.04,1.602,0.123
					c2.672,0.434,3.168,5.257,3.188,5.462c0.008,0.085-0.027,0.167-0.094,0.22C171,257.673,170.945,257.691,170.889,257.691z"/>
				<path style="fill:#FFFFFF;" d="M142.863,243.896c0.024,0,0.048,0,0.072,0.001c2.632,0.04,4.552,2.901,5.781,3.503
					c0.077,0.038,0.156,0.055,0.237,0.055c1.058,0,2.537-2.968,6.049-2.968c0.523,0,1.091,0.066,1.709,0.217
					c5.089,1.244,4.338,6.697,5.566,7.299c0.36,0.176,0.777,0.232,1.25,0.232c0.787,0,1.727-0.152,2.818-0.152
					c0.491,0,1.012,0.031,1.564,0.12c2.512,0.408,2.98,5.239,2.98,5.239l-33.934-11.417
					C136.955,246.025,140.243,243.896,142.863,243.896 M142.863,243.396c-2.737,0-6.04,2.119-6.18,2.21
					c-0.161,0.104-0.248,0.292-0.224,0.482c0.024,0.19,0.155,0.35,0.337,0.411l33.934,11.417c0.052,0.018,0.106,0.026,0.159,0.026
					c0.111,0,0.221-0.037,0.311-0.109c0.133-0.105,0.203-0.271,0.187-0.44c-0.021-0.213-0.537-5.22-3.397-5.685
					c-0.526-0.085-1.063-0.127-1.644-0.127c-0.61,0-1.178,0.046-1.678,0.087c-0.411,0.034-0.799,0.065-1.14,0.065
					c-0.457,0-0.775-0.056-1.03-0.181c-0.192-0.094-0.41-0.886-0.568-1.465c-0.541-1.974-1.359-4.957-5.099-5.871
					c-0.627-0.153-1.242-0.231-1.827-0.231c0,0-0.001,0-0.001,0c-2.454,0-3.999,1.346-5.022,2.237
					c-0.374,0.326-0.839,0.731-1.027,0.731c-0.345-0.165-0.804-0.584-1.289-1.027c-1.156-1.056-2.74-2.501-4.721-2.532
					L142.863,243.396L142.863,243.396z"/>
			</g>
		</g>
		<g>
			<g>

					<rect x="558.641" y="191.456" transform="matrix(0.9494 -0.314 0.314 0.9494 -46.065 204.7439)" style="fill:#FFFFFF;" width="107.833" height="107.832"/>
				<path style="fill:#57ADA7;" d="M646.182,178.517l33.23,100.48l-100.48,33.23l-33.23-100.48L646.182,178.517 M647.453,175.99
					l-1.899,0.628l-100.48,33.23l-1.899,0.628l0.628,1.899l33.23,100.48l0.628,1.899l1.899-0.628l100.48-33.23l1.899-0.628
					l-0.628-1.899l-33.23-100.48L647.453,175.99L647.453,175.99z"/>
			</g>
			<path style="fill:#A1D9D5;" d="M633.723,205.172c1.602,4.844-1.026,10.07-5.871,11.673c-4.844,1.602-10.07-1.026-11.673-5.871
				c-1.602-4.845,1.026-10.071,5.871-11.673C626.895,197.699,632.121,200.327,633.723,205.172z"/>
			<path style="fill:#A1D9D5;" d="M584.387,299.555c0,0,1.331-52.366,8.339-54.684c7.008-2.318,26.248,15.285,26.248,15.285
				s4.949-15.617,12.094-17.98c7.145-2.363,36.407,29.9,36.407,29.9L584.387,299.555z"/>
			<g>
				<path style="fill:#A1D9D5;" d="M566.471,239.127c-0.056,0-0.109-0.019-0.154-0.053c-0.066-0.053-0.103-0.135-0.095-0.219
					c0.025-0.278,0.66-6.808,4.241-7.41c0.722-0.122,1.464-0.181,2.269-0.181c0.781,0,1.517,0.056,2.166,0.105
					c0.557,0.042,1.072,0.082,1.547,0.082c0.72,0,1.228-0.093,1.645-0.3c0.438-0.218,0.694-1.175,0.992-2.284
					c0.698-2.605,1.754-6.54,6.612-7.757c0.841-0.21,1.663-0.317,2.443-0.317c3.164,0,5.12,1.685,6.549,2.915
					c0.684,0.588,1.273,1.097,1.692,1.097c0.076,0,0.147-0.017,0.217-0.052c0.503-0.25,1.118-0.818,1.831-1.477
					c1.608-1.484,3.607-3.331,6.151-3.384l0.142-0.002c3.608,0,8.005,2.787,8.19,2.905c0.081,0.052,0.125,0.145,0.113,0.24
					c-0.012,0.095-0.076,0.176-0.167,0.207l-46.306,15.871C566.525,239.122,566.498,239.127,566.471,239.127z"/>
				<path style="fill:#FFFFFF;" d="M604.721,220.14c3.577,0,8.056,2.865,8.056,2.865l-46.306,15.871c0,0,0.601-6.608,4.033-7.186
					c0.787-0.132,1.531-0.177,2.228-0.177c1.43,0,2.671,0.187,3.714,0.187c0.667,0,1.252-0.076,1.755-0.327
					c1.675-0.833,0.605-8.282,7.554-10.022c0.863-0.216,1.655-0.31,2.383-0.31c4.762,0,6.8,4.011,8.241,4.011
					c0.113,0,0.222-0.024,0.328-0.077c1.675-0.833,4.278-4.759,7.876-4.834C604.629,220.14,604.675,220.14,604.721,220.14
					 M604.721,219.64C604.721,219.64,604.721,219.64,604.721,219.64l-0.148,0.001c-2.639,0.055-4.763,2.017-6.314,3.449
					c-0.699,0.646-1.303,1.203-1.774,1.437c-0.035,0.017-0.068,0.025-0.106,0.025c-0.326,0-0.91-0.503-1.529-1.036
					c-1.376-1.185-3.455-2.975-6.712-2.975c-0.801,0-1.643,0.109-2.504,0.325c-5.002,1.253-6.08,5.274-6.794,7.935
					c-0.258,0.962-0.525,1.957-0.861,2.124c-0.382,0.19-0.854,0.274-1.533,0.274c-0.462,0-0.98-0.039-1.529-0.081
					c-0.654-0.05-1.395-0.106-2.185-0.106c-0.82,0-1.576,0.06-2.311,0.184c-3.769,0.634-4.422,7.348-4.448,7.634
					c-0.015,0.169,0.056,0.334,0.189,0.439c0.089,0.07,0.198,0.107,0.309,0.107c0.054,0,0.109-0.009,0.162-0.027l46.306-15.871
					c0.182-0.062,0.311-0.223,0.334-0.413c0.023-0.19-0.065-0.377-0.227-0.481C612.858,222.464,608.402,219.64,604.721,219.64
					L604.721,219.64z"/>
			</g>
			<g>
				<path style="fill:#A1D9D5;" d="M613.598,240.064c-0.067,0-0.134-0.027-0.182-0.078c-0.065-0.07-0.086-0.171-0.052-0.261
					c0.063-0.165,1.564-4.068,3.889-5.72c0.851-0.605,1.946-0.899,3.35-0.899c0.739,0,1.47,0.078,2.113,0.147
					c0.51,0.055,0.991,0.107,1.374,0.107c0.165,0,0.315-0.009,0.445-0.033c0.342-0.062,0.484-0.696,0.665-1.501
					c0.396-1.756,0.992-4.411,4.457-5.849c0.864-0.359,1.727-0.541,2.562-0.541c2.302,0,4.003,1.348,5.245,2.332
					c0.652,0.517,1.216,0.963,1.575,0.963c0.738-0.126,1.355-0.662,2.138-1.34c0.764-0.663,1.63-1.414,2.825-2.024
					c0.352-0.18,0.742-0.271,1.16-0.271c2.342,0,4.9,2.831,5.009,2.952c0.057,0.063,0.077,0.15,0.055,0.232
					c-0.023,0.081-0.085,0.146-0.165,0.172l-36.387,11.599C613.648,240.06,613.623,240.064,613.598,240.064z"/>
				<path style="fill:#FFFFFF;" d="M645.163,225.346c2.257,0,4.821,2.868,4.821,2.868l-36.386,11.599c0,0,1.511-3.978,3.799-5.605
					c0.944-0.671,2.087-0.853,3.205-0.853c1.32,0,2.606,0.253,3.487,0.253c0.181,0,0.345-0.011,0.489-0.036
					c1.437-0.258,0.012-5.222,5.174-7.364c0.891-0.37,1.711-0.522,2.466-0.522c3.513,0,5.612,3.295,6.82,3.295
					c0.037,0,0.073-0.003,0.108-0.009c1.437-0.258,2.551-2.148,4.969-3.383C644.449,225.42,644.802,225.346,645.163,225.346
					 M645.163,224.846c-0.458,0-0.887,0.1-1.275,0.298c-1.222,0.624-2.139,1.419-2.875,2.058c-0.753,0.653-1.347,1.169-1.955,1.278
					c0,0-0.001,0-0.001,0c-0.292,0-0.875-0.462-1.438-0.908c-1.271-1.007-3.011-2.385-5.4-2.385c-0.868,0-1.762,0.188-2.657,0.56
					c-3.585,1.488-4.223,4.328-4.605,6.024c-0.121,0.539-0.287,1.277-0.466,1.309c-0.106,0.019-0.241,0.029-0.401,0.029
					c-0.37,0-0.845-0.051-1.348-0.105c-0.65-0.07-1.387-0.149-2.14-0.149c-1.457,0-2.6,0.309-3.495,0.945
					c-2.385,1.695-3.913,5.667-3.977,5.835c-0.068,0.179-0.028,0.382,0.104,0.521c0.096,0.101,0.228,0.156,0.363,0.156
					c0.051,0,0.102-0.008,0.152-0.024l36.386-11.599c0.161-0.051,0.286-0.181,0.331-0.345c0.045-0.164,0.003-0.339-0.11-0.465
					C650.246,227.758,647.615,224.846,645.163,224.846L645.163,224.846z"/>
			</g>
		</g>
	</g>
</g>
</svg>
